<svg width="9" height="11" viewBox="0 0 9 11" fill="none" xmlns="http://www.w3.org/2000/svg">
<path d="M3.78662 10.625L-0.713379 7.25C-0.869629 7.13542 -0.992025 6.98958 -1.08057 6.8125C-1.16911 6.63542 -1.21338 6.44792 -1.21338 6.25V-1.25C-1.21338 -1.59375 -1.09098 -1.88802 -0.846191 -2.13281C-0.6014 -2.3776 -0.307129 -2.5 0.0366211 -2.5H7.53662C7.88037 -2.5 8.17464 -2.3776 8.41943 -2.13281C8.66423 -1.88802 8.78662 -1.59375 8.78662 -1.25V6.25C8.78662 6.44792 8.74235 6.63542 8.65381 6.8125C8.56527 6.98958 8.44287 7.13542 8.28662 7.25L3.78662 10.625ZM3.13037 5.625L6.66162 2.09375L5.78662 1.1875L3.13037 3.84375L1.81787 2.53125L0.911621 3.40625L3.13037 5.625Z" fill="#1A1A1A" fill-opacity="0.4"/>
</svg>
