<svg width="16" height="18" viewBox="0 0 16 18" fill="none" xmlns="http://www.w3.org/2000/svg">
<path fill-rule="evenodd" clip-rule="evenodd" d="M5.6 1.66667H1.6V11.6667H4.82197C4.97577 10.2174 5.92238 9.01711 7.2 8.54671V3.33333C7.2 2.41286 6.48366 1.66667 5.6 1.66667ZM8.8 8.35622C10.4686 8.54836 11.7936 9.92849 11.978 11.6667H14.4V1.66667H10.4C9.51635 1.66667 8.8 2.41286 8.8 3.33333V8.35622ZM11.795 13.3333H14.4H16V11.6667V1.66667V0H14.4H10.4C9.44425 0 8.58636 0.436463 8 1.12848C7.41365 0.436463 6.55576 0 5.6 0H1.6H0V1.66667V11.6667V13.3333H1.6H5.00497C5.21537 13.9532 5.57765 14.498 6.04444 14.9191L6.04443 15.8333L7.6 15.8333V17.5H9.2V15.8333L10.7555 15.8333L10.7555 14.9192C11.2223 14.498 11.5846 13.9532 11.795 13.3333ZM9.2 15.8333H7.64443L7.64444 14.5089L7.64445 14.0639L7.28945 13.8163C6.75144 13.4412 6.4 12.8049 6.4 12.0833C6.4 10.9327 7.29543 10 8.4 10C9.50457 10 10.4 10.9327 10.4 12.0833C10.4 12.8049 10.0486 13.4412 9.51055 13.8163L9.15556 14.0639L9.15556 14.5088L9.15554 15.8333L9.2 15.8333ZM5.6 7.5H3.2V5.83333H5.6V7.5ZM3.2 5H5.6V3.33333H3.2V5Z" fill="#1F1F1F"/>
</svg>
